<svg version="1.1" viewBox="0.0 0.0 377.9527559055118 132.28346456692913" fill="none" stroke="none" stroke-linecap="square" stroke-miterlimit="10" xmlns:xlink="http://www.w3.org/1999/xlink" xmlns="http://www.w3.org/2000/svg"><clipPath id="p.0"><path d="m0 0l377.95276 0l0 132.28346l-377.95276 0l0 -132.28346z" clip-rule="nonzero"/></clipPath><g clip-path="url(#p.0)"><path fill="#000000" fill-opacity="0.0" d="m0 0l377.95276 0l0 132.28346l-377.95276 0z" fill-rule="evenodd"/><path fill="#eeeeee" d="m124.12674 22.90824l0 0c0 -11.938787 9.678299 -21.617086 21.61708 -21.617086l86.46576 0l0 0c5.7332 0 11.231598 2.2775078 15.2855835 6.331498c4.0539856 4.05399 6.331497 9.5523815 6.331497 15.285589l0 86.46575c0 11.938782 -9.678299 21.61708 -21.61708 21.61708l-86.46576 0c-11.938782 0 -21.61708 -9.678299 -21.61708 -21.61708z" fill-rule="evenodd"/><path stroke="#595959" stroke-width="2.0" stroke-linejoin="round" stroke-linecap="butt" d="m124.12674 22.90824l0 0c0 -11.938787 9.678299 -21.617086 21.61708 -21.617086l86.46576 0l0 0c5.7332 0 11.231598 2.2775078 15.2855835 6.331498c4.0539856 4.05399 6.331497 9.5523815 6.331497 15.285589l0 86.46575c0 11.938782 -9.678299 21.61708 -21.61708 21.61708l-86.46576 0c-11.938782 0 -21.61708 -9.678299 -21.61708 -21.61708z" fill-rule="evenodd"/><path fill="#000000" fill-opacity="0.0" d="m124.12674 94.22165l129.69992 0l0 27.625946l-129.69992 0z" fill-rule="evenodd"/><path fill="#595959" d="m148.07924 117.06227l0 0.203125q0 1.15625 0.296875 2.140625q0.296875 0.96875 0.84375 1.6875q0.5625 0.71875 1.34375 1.125q0.796875 0.40625 1.78125 0.40625q0.5 0 0.921875 -0.109375q0.4375 -0.109375 0.796875 -0.3125q0.25 -0.140625 0.46875 -0.3125q0.21875 -0.171875 0.40625 -0.390625l0 0.609375q0 0.53125 -0.15625 0.953125q-0.140625 0.4375 -0.421875 0.734375q-0.3125 0.328125 -0.78125 0.484375q-0.46875 0.171875 -1.0625 0.171875q-0.375 0 -0.71875 -0.078125q-0.34375 -0.0625 -0.671875 -0.21875q-0.328125 -0.140625 -0.640625 -0.375q-0.296875 -0.21875 -0.5625 -0.53125l-1.21875 1.65625q0.34375 0.4375 0.8125 0.75q0.484375 0.328125 1.03125 0.53125q0.53125 0.203125 1.078125 0.296875q0.546875 0.09375 1.03125 0.09375q1.109375 0 2.03125 -0.296875q0.921875 -0.296875 1.59375 -0.875q0.65625 -0.578125 1.015625 -1.421875q0.359375 -0.828125 0.359375 -1.90625l0 -10.21875l-2.46875 0l-0.109375 1.0q-0.1875 -0.25 -0.421875 -0.4375q-0.234375 -0.203125 -0.515625 -0.359375q-0.359375 -0.203125 -0.8125 -0.296875q-0.4375 -0.109375 -0.96875 -0.109375q-1.0 0 -1.796875 0.390625q-0.78125 0.390625 -1.34375 1.109375q-0.546875 0.703125 -0.84375 1.703125q-0.296875 1.0 -0.296875 2.203125zm2.71875 0.203125l0 -0.203125q0 -0.671875 0.140625 -1.25q0.140625 -0.578125 0.421875 -1.015625q0.265625 -0.4375 0.6875 -0.6875q0.421875 -0.25 1.0 -0.25q0.3125 0 0.578125 0.0625q0.265625 0.0625 0.5 0.171875q0.25 0.125 0.453125 0.328125q0.21875 0.203125 0.359375 0.484375l0 4.46875q-0.140625 0.25 -0.328125 0.453125q-0.171875 0.1875 -0.421875 0.3125q-0.234375 0.125 -0.53125 0.203125q-0.28125 0.0625 -0.625 0.0625q-0.578125 0 -1.0 -0.234375q-0.421875 -0.25 -0.703125 -0.6875q-0.265625 -0.40625 -0.40625 -0.984375q-0.125 -0.578125 -0.125 -1.234375zm14.673828 5.359375q1.53125 0 2.65625 -0.59375q1.125 -0.609375 1.640625 -1.34375l-1.359375 -1.453125q-0.46875 0.59375 -1.21875 0.90625q-0.75 0.296875 -1.546875 0.296875q-0.5625 0 -1.046875 -0.171875q-0.484375 -0.171875 -0.84375 -0.5q-0.359375 -0.3125 -0.578125 -0.6875q-0.21875 -0.390625 -0.359375 -1.03125l0 -0.03125l7.171875 0l0 -1.15625q0 -1.15625 -0.328125 -2.109375q-0.3125 -0.96875 -0.9375 -1.65625q-0.625 -0.6875 -1.515625 -1.0625q-0.890625 -0.375 -2.03125 -0.375q-1.109375 0 -2.046875 0.40625q-0.9375 0.390625 -1.609375 1.125q-0.6875 0.71875 -1.078125 1.71875q-0.375 1.0 -0.375 2.21875l0 0.390625q0 1.0625 0.375 2.0q0.390625 0.921875 1.109375 1.609375q0.71875 0.6875 1.703125 1.09375q1.0 0.40625 2.21875 0.40625zm-0.3125 -8.765625q0.515625 0 0.90625 0.15625q0.390625 0.15625 0.671875 0.4375q0.265625 0.28125 0.421875 0.671875q0.15625 0.375 0.15625 0.796875l0 0.21875l-4.453125 0q0.109375 -0.515625 0.296875 -0.9375q0.203125 -0.421875 0.484375 -0.71875q0.296875 -0.3125 0.671875 -0.46875q0.375 -0.15625 0.84375 -0.15625zm8.876953 -2.0l-2.328125 0l0 10.5625l2.46875 0l0 -7.90625q0.046875 -0.125 0.109375 -0.234375q0.0625 -0.109375 0.140625 -0.1875q0.109375 -0.109375 0.234375 -0.171875q0.140625 -0.0625 0.3125 -0.0625q0.15625 0 0.296875 0.046875q0.140625 0.046875 0.25 0.15625q0.09375 0.109375 0.140625 0.3125q0.0625 0.1875 0.0625 0.484375l0 7.5625l2.40625 0l0 -7.796875q0 -0.109375 0 -0.171875q0 -0.078125 0 -0.09375q0.046875 -0.109375 0.109375 -0.1875q0.0625 -0.09375 0.15625 -0.15625q0.109375 -0.078125 0.234375 -0.109375q0.125 -0.046875 0.28125 -0.046875q0.140625 0 0.28125 0.046875q0.140625 0.046875 0.25 0.15625q0.109375 0.109375 0.171875 0.3125q0.0625 0.1875 0.0625 0.5l0 7.546875l2.46875 0l0 -7.546875q0 -0.875 -0.171875 -1.484375q-0.171875 -0.609375 -0.46875 -1.0q-0.3125 -0.375 -0.734375 -0.546875q-0.40625 -0.1875 -0.890625 -0.1875q-0.375 0 -0.703125 0.109375q-0.328125 0.09375 -0.578125 0.265625q-0.203125 0.140625 -0.375 0.328125q-0.171875 0.1875 -0.3125 0.421875q-0.078125 -0.25 -0.203125 -0.4375q-0.125 -0.1875 -0.28125 -0.328125q-0.21875 -0.1875 -0.515625 -0.265625q-0.296875 -0.09375 -0.65625 -0.09375q-0.765625 0 -1.296875 0.40625q-0.53125 0.390625 -0.84375 1.078125l-0.078125 -1.28125zm10.361328 14.625l2.703125 0l0 -4.984375q0.1875 0.203125 0.390625 0.375q0.21875 0.171875 0.4375 0.296875q0.375 0.21875 0.8125 0.328125q0.453125 0.125 0.984375 0.125q1.0 0 1.765625 -0.40625q0.765625 -0.421875 1.296875 -1.140625q0.515625 -0.71875 0.78125 -1.703125q0.28125 -0.984375 0.28125 -2.140625l0 -0.203125q0 -1.203125 -0.28125 -2.1875q-0.265625 -1.0 -0.78125 -1.703125q-0.53125 -0.703125 -1.3125 -1.09375q-0.765625 -0.390625 -1.765625 -0.390625q-0.5 0 -0.921875 0.109375q-0.421875 0.09375 -0.765625 0.28125q-0.296875 0.15625 -0.5625 0.375q-0.25 0.203125 -0.453125 0.46875l-0.109375 -1.03125l-2.5 0l0 14.625zm6.734375 -9.453125l0 0.203125q0 0.65625 -0.125 1.234375q-0.109375 0.578125 -0.359375 1.015625q-0.265625 0.453125 -0.671875 0.703125q-0.390625 0.25 -0.96875 0.25q-0.359375 0 -0.65625 -0.0625q-0.296875 -0.078125 -0.515625 -0.21875q-0.234375 -0.140625 -0.421875 -0.34375q-0.171875 -0.21875 -0.3125 -0.46875l0 -4.40625q0.140625 -0.28125 0.328125 -0.484375q0.203125 -0.203125 0.453125 -0.34375q0.21875 -0.109375 0.484375 -0.171875q0.28125 -0.078125 0.609375 -0.078125q0.578125 0 0.984375 0.25q0.40625 0.25 0.671875 0.671875q0.25 0.421875 0.375 1.0q0.125 0.578125 0.125 1.25zm5.939453 -5.171875l0 2.21875l3.015625 0l0 6.140625l-3.015625 0l0 2.203125l8.625 0l0 -2.203125l-2.859375 0l0 -8.359375l-5.765625 0zm2.8125 -2.703125q0 0.3125 0.109375 0.578125q0.125 0.265625 0.328125 0.453125q0.203125 0.1875 0.484375 0.296875q0.296875 0.109375 0.640625 0.109375q0.734375 0 1.15625 -0.40625q0.421875 -0.40625 0.421875 -1.03125q0 -0.640625 -0.421875 -1.046875q-0.421875 -0.40625 -1.15625 -0.40625q-0.34375 0 -0.640625 0.109375q-0.28125 0.109375 -0.484375 0.296875q-0.203125 0.1875 -0.328125 0.46875q-0.109375 0.265625 -0.109375 0.578125zm8.517578 17.328125l2.703125 0l0 -4.984375q0.1875 0.203125 0.390625 0.375q0.21875 0.171875 0.4375 0.296875q0.375 0.21875 0.8125 0.328125q0.453125 0.125 0.984375 0.125q1.0 0 1.765625 -0.40625q0.765625 -0.421875 1.296875 -1.140625q0.515625 -0.71875 0.78125 -1.703125q0.28125 -0.984375 0.28125 -2.140625l0 -0.203125q0 -1.203125 -0.28125 -2.1875q-0.265625 -1.0 -0.78125 -1.703125q-0.53125 -0.703125 -1.3125 -1.09375q-0.765625 -0.390625 -1.765625 -0.390625q-0.5 0 -0.921875 0.109375q-0.421875 0.09375 -0.765625 0.28125q-0.296875 0.15625 -0.5625 0.375q-0.25 0.203125 -0.453125 0.46875l-0.109375 -1.03125l-2.5 0l0 14.625zm6.734375 -9.453125l0 0.203125q0 0.65625 -0.125 1.234375q-0.109375 0.578125 -0.359375 1.015625q-0.265625 0.453125 -0.671875 0.703125q-0.390625 0.25 -0.96875 0.25q-0.359375 0 -0.65625 -0.0625q-0.296875 -0.078125 -0.515625 -0.21875q-0.234375 -0.140625 -0.421875 -0.34375q-0.171875 -0.21875 -0.3125 -0.46875l0 -4.40625q0.140625 -0.28125 0.328125 -0.484375q0.203125 -0.203125 0.453125 -0.34375q0.21875 -0.109375 0.484375 -0.171875q0.28125 -0.078125 0.609375 -0.078125q0.578125 0 0.984375 0.25q0.40625 0.25 0.671875 0.671875q0.25 0.421875 0.375 1.0q0.125 0.578125 0.125 1.25zm10.345703 5.59375q1.53125 0 2.65625 -0.59375q1.125 -0.609375 1.640625 -1.34375l-1.359375 -1.453125q-0.46875 0.59375 -1.21875 0.90625q-0.75 0.296875 -1.546875 0.296875q-0.5625 0 -1.046875 -0.171875q-0.484375 -0.171875 -0.84375 -0.5q-0.359375 -0.3125 -0.578125 -0.6875q-0.21875 -0.390625 -0.359375 -1.03125l0 -0.03125l7.171875 0l0 -1.15625q0 -1.15625 -0.328125 -2.109375q-0.3125 -0.96875 -0.9375 -1.65625q-0.625 -0.6875 -1.515625 -1.0625q-0.890625 -0.375 -2.03125 -0.375q-1.109375 0 -2.046875 0.40625q-0.9375 0.390625 -1.609375 1.125q-0.6875 0.71875 -1.078125 1.71875q-0.375 1.0 -0.375 2.21875l0 0.390625q0 1.0625 0.375 2.0q0.390625 0.921875 1.109375 1.609375q0.71875 0.6875 1.703125 1.09375q1.0 0.40625 2.21875 0.40625zm-0.3125 -8.765625q0.515625 0 0.90625 0.15625q0.390625 0.15625 0.671875 0.4375q0.265625 0.28125 0.421875 0.671875q0.15625 0.375 0.15625 0.796875l0 0.21875l-4.453125 0q0.109375 -0.515625 0.296875 -0.9375q0.203125 -0.421875 0.484375 -0.71875q0.296875 -0.3125 0.671875 -0.46875q0.375 -0.15625 0.84375 -0.15625z" fill-rule="nonzero"/><path fill="#c27ba0" d="m238.87971 87.38586l-12.33548 -12.3354645l-12.3354645 12.3354645l12.3354645 12.3354645z" fill-rule="evenodd"/><path stroke="#595959" stroke-width="1.0" stroke-linejoin="round" stroke-linecap="butt" d="m238.87971 87.38586l-12.33548 -12.3354645l-12.3354645 12.3354645l12.3354645 12.3354645z" fill-rule="evenodd"/><path fill="#d5a6bd" d="m245.49834 74.44849l-12.3354645 -12.335468l-12.3354645 12.335468l12.3354645 12.3354645z" fill-rule="evenodd"/><path stroke="#595959" stroke-width="1.0" stroke-linejoin="round" stroke-linecap="butt" d="m245.49834 74.44849l-12.3354645 -12.335468l-12.3354645 12.335468l12.3354645 12.3354645z" fill-rule="evenodd"/><path fill="#ead1dc" d="m245.23627 66.13398l-12.33548 -12.3354645l-12.3354645 12.3354645l12.3354645 12.3354645z" fill-rule="evenodd"/><path stroke="#595959" stroke-width="1.0" stroke-linejoin="round" stroke-linecap="butt" d="m245.23627 66.13398l-12.33548 -12.3354645l-12.3354645 12.3354645l12.3354645 12.3354645z" fill-rule="evenodd"/><path fill="#d9d2e9" d="m242.47227 57.43852l-12.33548 -12.335468l-12.3354645 12.335468l12.3354645 12.335468z" fill-rule="evenodd"/><path stroke="#595959" stroke-width="1.0" stroke-linejoin="round" stroke-linecap="butt" d="m242.47227 57.43852l-12.33548 -12.335468l-12.3354645 12.335468l12.3354645 12.335468z" fill-rule="evenodd"/><path fill="#c27ba0" d="m143.08064 88.9417l0 0c0 -5.9587326 4.8305054 -10.789238 10.78923 -10.789238l0 0c2.861496 0 5.605774 1.1367188 7.6291504 3.1600952c2.0233765 2.0233765 3.1600952 4.767662 3.1600952 7.6291428l0 0c0 5.9587326 -4.8305054 10.789238 -10.789246 10.789238l0 0c-5.958725 0 -10.78923 -4.8305054 -10.78923 -10.789238z" fill-rule="evenodd"/><path stroke="#595959" stroke-width="1.0" stroke-linejoin="round" stroke-linecap="butt" d="m143.08064 88.9417l0 0c0 -5.9587326 4.8305054 -10.789238 10.78923 -10.789238l0 0c2.861496 0 5.605774 1.1367188 7.6291504 3.1600952c2.0233765 2.0233765 3.1600952 4.767662 3.1600952 7.6291428l0 0c0 5.9587326 -4.8305054 10.789238 -10.789246 10.789238l0 0c-5.958725 0 -10.78923 -4.8305054 -10.78923 -10.789238z" fill-rule="evenodd"/><path fill="#d5a6bd" d="m137.29414 77.63061l0 0c0 -5.9587326 4.8305054 -10.789238 10.789246 -10.789238l0 0c2.8614807 0 5.6057587 1.1367188 7.629135 3.1600952c2.0233765 2.0233765 3.1600952 4.7676544 3.1600952 7.6291428l0 0c0 5.9587326 -4.8305054 10.789238 -10.78923 10.789238l0 0c-5.95874 0 -10.789246 -4.8305054 -10.789246 -10.789238z" fill-rule="evenodd"/><path stroke="#595959" stroke-width="1.0" stroke-linejoin="round" stroke-linecap="butt" d="m137.29414 77.63061l0 0c0 -5.9587326 4.8305054 -10.789238 10.789246 -10.789238l0 0c2.8614807 0 5.6057587 1.1367188 7.629135 3.1600952c2.0233765 2.0233765 3.1600952 4.7676544 3.1600952 7.6291428l0 0c0 5.9587326 -4.8305054 10.789238 -10.78923 10.789238l0 0c-5.95874 0 -10.789246 -4.8305054 -10.789246 -10.789238z" fill-rule="evenodd"/><path fill="#ead1dc" d="m134.46428 69.14709l0 0c0 -5.9587326 4.8305054 -10.789238 10.789246 -10.789238l0 0c2.8614807 0 5.6057587 1.1367188 7.629135 3.1600952c2.0233765 2.0233727 3.1600952 4.767662 3.1600952 7.6291428l0 0c0 5.9587326 -4.8305054 10.789238 -10.78923 10.789238l0 0c-5.95874 0 -10.789246 -4.8305054 -10.789246 -10.789238z" fill-rule="evenodd"/><path stroke="#595959" stroke-width="1.0" stroke-linejoin="round" stroke-linecap="butt" d="m134.46428 69.14709l0 0c0 -5.9587326 4.8305054 -10.789238 10.789246 -10.789238l0 0c2.8614807 0 5.6057587 1.1367188 7.629135 3.1600952c2.0233765 2.0233727 3.1600952 4.767662 3.1600952 7.6291428l0 0c0 5.9587326 -4.8305054 10.789238 -10.78923 10.789238l0 0c-5.95874 0 -10.789246 -4.8305054 -10.789246 -10.789238z" fill-rule="evenodd"/><path fill="#d9d2e9" d="m136.28798 59.786068l0 0c0 -5.9587326 4.8305054 -10.789238 10.78923 -10.789238l0 0c2.8614807 0 5.605774 1.1367188 7.6291504 3.1600952c2.0233612 2.0233765 3.16008 4.767658 3.16008 7.6291428l0 0c0 5.958729 -4.8305054 10.789242 -10.78923 10.789242l0 0c-5.958725 0 -10.78923 -4.830513 -10.78923 -10.789242z" fill-rule="evenodd"/><path stroke="#595959" stroke-width="1.0" stroke-linejoin="round" stroke-linecap="butt" d="m136.28798 59.786068l0 0c0 -5.9587326 4.8305054 -10.789238 10.78923 -10.789238l0 0c2.8614807 0 5.605774 1.1367188 7.6291504 3.1600952c2.0233612 2.0233765 3.16008 4.767658 3.16008 7.6291428l0 0c0 5.958729 -4.8305054 10.789242 -10.78923 10.789242l0 0c-5.958725 0 -10.78923 -4.830513 -10.78923 -10.789242z" fill-rule="evenodd"/><path fill="#b4a7d6" d="m234.93025 51.3535l-12.3354645 -12.335468l-12.3354645 12.335468l12.3354645 12.3354645z" fill-rule="evenodd"/><path stroke="#595959" stroke-width="1.0" stroke-linejoin="round" stroke-linecap="butt" d="m234.93025 51.3535l-12.3354645 -12.335468l-12.3354645 12.335468l12.3354645 12.3354645z" fill-rule="evenodd"/><path fill="#ead1dc" d="m234.9302 39.667076l-12.3354645 -12.335466l-12.3354645 12.335466l12.3354645 12.335468z" fill-rule="evenodd"/><path stroke="#595959" stroke-width="1.0" stroke-linejoin="round" stroke-linecap="butt" d="m234.9302 39.667076l-12.3354645 -12.335466l-12.3354645 12.335466l12.3354645 12.335468z" fill-rule="evenodd"/><path fill="#d5a6bd" d="m245.49834 47.374115l-12.3354645 -12.3354645l-12.3354645 12.3354645l12.3354645 12.3354645z" fill-rule="evenodd"/><path stroke="#595959" stroke-width="1.0" stroke-linejoin="round" stroke-linecap="butt" d="m245.49834 47.374115l-12.3354645 -12.3354645l-12.3354645 12.3354645l12.3354645 12.3354645z" fill-rule="evenodd"/><path fill="#c27ba0" d="m245.2356 33.219734l-12.3354645 -12.335466l-12.33548 12.335466l12.33548 12.335468z" fill-rule="evenodd"/><path stroke="#595959" stroke-width="1.0" stroke-linejoin="round" stroke-linecap="butt" d="m245.2356 33.219734l-12.3354645 -12.335466l-12.33548 12.335466l12.33548 12.335468z" fill-rule="evenodd"/><path fill="#b4a7d6" d="m234.93048 26.675516l-12.3354645 -12.335466l-12.3354645 12.335466l12.3354645 12.335466z" fill-rule="evenodd"/><path stroke="#595959" stroke-width="1.0" stroke-linejoin="round" stroke-linecap="butt" d="m234.93048 26.675516l-12.3354645 -12.335466l-12.3354645 12.335466l12.3354645 12.335466z" fill-rule="evenodd"/><path fill="#d9d2e9" d="m244.2964 21.894503l-12.3354645 -12.335466l-12.3354645 12.335466l12.3354645 12.335466z" fill-rule="evenodd"/><path stroke="#595959" stroke-width="1.0" stroke-linejoin="round" stroke-linecap="butt" d="m244.2964 21.894503l-12.3354645 -12.335466l-12.3354645 12.335466l12.3354645 12.335466z" fill-rule="evenodd"/><path fill="#b4a7d6" d="m140.91232 52.157295l0 0c0 -5.9587326 4.8305054 -10.789238 10.78923 -10.789238l0 0c2.861496 0 5.605774 1.1367226 7.6291504 3.1600952c2.0233765 2.0233765 3.1600952 4.767658 3.1600952 7.6291428l0 0c0 5.9587326 -4.8305054 10.789238 -10.789246 10.789238l0 0c-5.958725 0 -10.78923 -4.8305054 -10.78923 -10.789238z" fill-rule="evenodd"/><path stroke="#595959" stroke-width="1.0" stroke-linejoin="round" stroke-linecap="butt" d="m140.91232 52.157295l0 0c0 -5.9587326 4.8305054 -10.789238 10.78923 -10.789238l0 0c2.861496 0 5.605774 1.1367226 7.6291504 3.1600952c2.0233765 2.0233765 3.1600952 4.767658 3.1600952 7.6291428l0 0c0 5.9587326 -4.8305054 10.789238 -10.789246 10.789238l0 0c-5.958725 0 -10.78923 -4.8305054 -10.78923 -10.789238z" fill-rule="evenodd"/><path fill="#ead1dc" d="m145.83882 43.432175l0 0c0 -5.9587326 4.8305054 -10.789238 10.78923 -10.789238l0 0c2.8614807 0 5.605774 1.1367188 7.6291504 3.1600952c2.0233612 2.0233727 3.1600952 4.767658 3.1600952 7.6291428l0 0c0 5.9587326 -4.8305054 10.789238 -10.789246 10.789238l0 0c-5.958725 0 -10.78923 -4.8305054 -10.78923 -10.789238z" fill-rule="evenodd"/><path stroke="#595959" stroke-width="1.0" stroke-linejoin="round" stroke-linecap="butt" d="m145.83882 43.432175l0 0c0 -5.9587326 4.8305054 -10.789238 10.78923 -10.789238l0 0c2.8614807 0 5.605774 1.1367188 7.6291504 3.1600952c2.0233612 2.0233727 3.1600952 4.767658 3.1600952 7.6291428l0 0c0 5.9587326 -4.8305054 10.789238 -10.789246 10.789238l0 0c-5.958725 0 -10.78923 -4.8305054 -10.78923 -10.789238z" fill-rule="evenodd"/><path fill="#d5a6bd" d="m134.7083 47.403706l0 0c0 -5.958729 4.8305054 -10.789238 10.789246 -10.789238l0 0c2.8614807 0 5.6057587 1.1367226 7.629135 3.1600952c2.0233765 2.0233765 3.1600952 4.767662 3.1600952 7.6291428l0 0c0 5.9587326 -4.8305054 10.789238 -10.78923 10.789238l0 0c-5.95874 0 -10.789246 -4.8305054 -10.789246 -10.789238z" fill-rule="evenodd"/><path stroke="#595959" stroke-width="1.0" stroke-linejoin="round" stroke-linecap="butt" d="m134.7083 47.403706l0 0c0 -5.958729 4.8305054 -10.789238 10.789246 -10.789238l0 0c2.8614807 0 5.6057587 1.1367226 7.629135 3.1600952c2.0233765 2.0233765 3.1600952 4.767662 3.1600952 7.6291428l0 0c0 5.9587326 -4.8305054 10.789238 -10.78923 10.789238l0 0c-5.95874 0 -10.789246 -4.8305054 -10.789246 -10.789238z" fill-rule="evenodd"/><path fill="#c27ba0" d="m134.46408 32.156662l0 0c0 -5.9587307 4.8305054 -10.789238 10.78923 -10.789238l0 0c2.8614807 0 5.605774 1.1367207 7.6291504 3.1600952c2.0233765 2.0233746 3.1600952 4.767658 3.1600952 7.6291428l0 0c0 5.9587326 -4.8305054 10.789238 -10.789246 10.789238l0 0c-5.958725 0 -10.78923 -4.8305054 -10.78923 -10.789238z" fill-rule="evenodd"/><path stroke="#595959" stroke-width="1.0" stroke-linejoin="round" stroke-linecap="butt" d="m134.46408 32.156662l0 0c0 -5.9587307 4.8305054 -10.789238 10.78923 -10.789238l0 0c2.8614807 0 5.605774 1.1367207 7.6291504 3.1600952c2.0233765 2.0233746 3.1600952 4.767658 3.1600952 7.6291428l0 0c0 5.9587326 -4.8305054 10.789238 -10.789246 10.789238l0 0c-5.958725 0 -10.78923 -4.8305054 -10.78923 -10.789238z" fill-rule="evenodd"/><path fill="#b4a7d6" d="m147.91933 26.684525l0 0c0 -5.9587307 4.8305054 -10.789238 10.78923 -10.789238l0 0c2.8614807 0 5.605774 1.1367207 7.6291504 3.1600952c2.0233765 2.0233746 3.1600952 4.76766 3.1600952 7.6291428l0 0c0 5.9587326 -4.8305054 10.789238 -10.789246 10.789238l0 0c-5.958725 0 -10.78923 -4.8305054 -10.78923 -10.789238z" fill-rule="evenodd"/><path stroke="#595959" stroke-width="1.0" stroke-linejoin="round" stroke-linecap="butt" d="m147.91933 26.684525l0 0c0 -5.9587307 4.8305054 -10.789238 10.78923 -10.789238l0 0c2.8614807 0 5.605774 1.1367207 7.6291504 3.1600952c2.0233765 2.0233746 3.1600952 4.76766 3.1600952 7.6291428l0 0c0 5.9587326 -4.8305054 10.789238 -10.789246 10.789238l0 0c-5.958725 0 -10.78923 -4.8305054 -10.78923 -10.789238z" fill-rule="evenodd"/><path fill="#d9d2e9" d="m139.56256 18.753628l0 0c0 -5.9587317 4.8305054 -10.789238 10.78923 -10.789238l0 0c2.8614807 0 5.605774 1.1367202 7.6291504 3.1600947c2.0233765 2.0233746 3.1600952 4.767659 3.1600952 7.6291428l0 0c0 5.9587326 -4.8305054 10.789238 -10.789246 10.789238l0 0c-5.958725 0 -10.78923 -4.8305054 -10.78923 -10.789238z" fill-rule="evenodd"/><path stroke="#595959" stroke-width="1.0" stroke-linejoin="round" stroke-linecap="butt" d="m139.56256 18.753628l0 0c0 -5.9587317 4.8305054 -10.789238 10.78923 -10.789238l0 0c2.8614807 0 5.605774 1.1367202 7.6291504 3.1600947c2.0233765 2.0233746 3.1600952 4.767659 3.1600952 7.6291428l0 0c0 5.9587326 -4.8305054 10.789238 -10.789246 10.789238l0 0c-5.958725 0 -10.78923 -4.8305054 -10.78923 -10.789238z" fill-rule="evenodd"/><path fill="#b7b7b7" d="m148.80003 83.10118l0 0c0 -12.878952 3.502365 -23.319412 7.822769 -23.319412l0 0c2.0747223 0 4.0644836 2.4568596 5.53154 6.830101c1.467041 4.3732376 2.2912292 10.304619 2.2912292 16.489311l0 0c0 12.87896 -3.502365 23.31942 -7.822769 23.31942l0 0c-2.0747223 0 -4.0644836 -2.4568634 -5.53154 -6.830101c-1.467041 -4.3732376 -2.2912292 -10.304626 -2.2912292 -16.489319z" fill-rule="evenodd"/><path stroke="#434343" stroke-width="1.0" stroke-linejoin="round" stroke-linecap="butt" d="m148.80003 83.10118l0 0c0 -12.878952 3.502365 -23.319412 7.822769 -23.319412l0 0c2.0747223 0 4.0644836 2.4568596 5.53154 6.830101c1.467041 4.3732376 2.2912292 10.304619 2.2912292 16.489311l0 0c0 12.87896 -3.502365 23.31942 -7.822769 23.31942l0 0c-2.0747223 0 -4.0644836 -2.4568634 -5.53154 -6.830101c-1.467041 -4.3732376 -2.2912292 -10.304626 -2.2912292 -16.489319z" fill-rule="evenodd"/><path fill="#b7b7b7" d="m213.49313 83.10118l0 0c0 -12.878952 3.502365 -23.319412 7.822769 -23.319412l0 0c2.0747223 0 4.0644684 2.4568596 5.5315247 6.830101c1.4670563 4.3732376 2.2912445 10.304619 2.2912445 16.489311l0 0c0 12.87896 -3.5023804 23.31942 -7.822769 23.31942l0 0c-2.0747375 0 -4.0644836 -2.4568634 -5.53154 -6.830101c-1.4670563 -4.3732376 -2.2912292 -10.304626 -2.2912292 -16.489319z" fill-rule="evenodd"/><path stroke="#595959" stroke-width="1.0" stroke-linejoin="round" stroke-linecap="butt" d="m213.49313 83.10118l0 0c0 -12.878952 3.502365 -23.319412 7.822769 -23.319412l0 0c2.0747223 0 4.0644684 2.4568596 5.5315247 6.830101c1.4670563 4.3732376 2.2912445 10.304619 2.2912445 16.489311l0 0c0 12.87896 -3.5023804 23.31942 -7.822769 23.31942l0 0c-2.0747375 0 -4.0644836 -2.4568634 -5.53154 -6.830101c-1.4670563 -4.3732376 -2.2912292 -10.304626 -2.2912292 -16.489319z" fill-rule="evenodd"/><path fill="#b7b7b7" d="m156.62459 59.78177l64.84996 0l0 46.638832l-64.84996 0z" fill-rule="evenodd"/><path fill="#b7b7b7" d="m155.19171 83.10118l0 0c0 -12.878952 3.502365 -23.319412 7.822769 -23.319412l0 0c2.0747223 0 4.0644836 2.4568596 5.5315247 6.830101c1.4670563 4.3732376 2.2912445 10.304619 2.2912445 16.489311l0 0c0 12.87896 -3.5023804 23.31942 -7.822769 23.31942l0 0c-2.0747223 0 -4.0644836 -2.4568634 -5.53154 -6.830101c-1.4670563 -4.3732376 -2.2912292 -10.304626 -2.2912292 -16.489319z" fill-rule="evenodd"/><path stroke="#595959" stroke-width="1.0" stroke-linejoin="round" stroke-linecap="butt" d="m155.19171 83.10118l0 0c0 -12.878952 3.502365 -23.319412 7.822769 -23.319412l0 0c2.0747223 0 4.0644836 2.4568596 5.5315247 6.830101c1.4670563 4.3732376 2.2912445 10.304619 2.2912445 16.489311l0 0c0 12.87896 -3.5023804 23.31942 -7.822769 23.31942l0 0c-2.0747223 0 -4.0644836 -2.4568634 -5.53154 -6.830101c-1.4670563 -4.3732376 -2.2912292 -10.304626 -2.2912292 -16.489319z" fill-rule="evenodd"/><path fill="#b7b7b7" d="m206.57639 83.10118l0 0c0 -12.878952 3.5023804 -23.319412 7.822769 -23.319412l0 0c2.0747375 0 4.0644836 2.4568596 5.53154 6.830101c1.4670563 4.3732376 2.2912292 10.304619 2.2912292 16.489311l0 0c0 12.87896 -3.502365 23.31942 -7.822769 23.31942l0 0c-2.0747223 0 -4.0644684 -2.4568634 -5.5315247 -6.830101c-1.4670563 -4.3732376 -2.2912445 -10.304626 -2.2912445 -16.489319z" fill-rule="evenodd"/><path stroke="#595959" stroke-width="1.0" stroke-linejoin="round" stroke-linecap="butt" d="m206.57639 83.10118l0 0c0 -12.878952 3.5023804 -23.319412 7.822769 -23.319412l0 0c2.0747375 0 4.0644836 2.4568596 5.53154 6.830101c1.4670563 4.3732376 2.2912292 10.304619 2.2912292 16.489311l0 0c0 12.87896 -3.502365 23.31942 -7.822769 23.31942l0 0c-2.0747223 0 -4.0644684 -2.4568634 -5.5315247 -6.830101c-1.4670563 -4.3732376 -2.2912445 -10.304626 -2.2912445 -16.489319z" fill-rule="evenodd"/><path fill="#b7b7b7" d="m163.5877 59.78177l50.830826 0l0 46.638832l-50.830826 0z" fill-rule="evenodd"/><path fill="#000000" fill-opacity="0.0" d="m156.31387 59.78177l65.90369 0" fill-rule="evenodd"/><path stroke="#595959" stroke-width="1.0" stroke-linejoin="round" stroke-linecap="butt" d="m156.31387 59.78177l65.90369 0" fill-rule="evenodd"/><path fill="#f1c232" d="m197.27878 36.988808l-1.2797546 14.09552l-3.207672 -0.47747803l1.2239075 13.702927l-3.3848877 -0.22428131l-1.1301117 20.717056l-7.4755096 -21.715935l3.977417 0.49604034l-4.496063 -13.70528l4.9208984 0.18252945l-4.7807617 -14.422375z" fill-rule="evenodd"/><path stroke="#595959" stroke-width="1.0" stroke-linejoin="round" stroke-linecap="butt" d="m197.27878 36.988808l-1.2797546 14.09552l-3.207672 -0.47747803l1.2239075 13.702927l-3.3848877 -0.22428131l-1.1301117 20.717056l-7.4755096 -21.715935l3.977417 0.49604034l-4.496063 -13.70528l4.9208984 0.18252945l-4.7807617 -14.422375z" fill-rule="evenodd"/><path fill="#000000" fill-opacity="0.0" d="m156.31387 106.42656l65.789154 0" fill-rule="evenodd"/><path stroke="#595959" stroke-width="1.0" stroke-linejoin="round" stroke-linecap="butt" d="m156.31387 106.42656l65.789154 0" fill-rule="evenodd"/></g></svg>